<svg xmlns="http://www.w3.org/2000/svg" xmlns:xlink="http://www.w3.org/1999/xlink" width="1920" zoomAndPan="magnify" viewBox="0 0 1440 449.999984" height="600" preserveAspectRatio="xMidYMid meet" version="1.2"><defs/><g id="745c8f81a0"><rect x="0" width="1440" y="0" height="449.999984" style="fill:#ffffff;fill-opacity:1;stroke:none;"/><rect x="0" width="1440" y="0" height="449.999984" style="fill:#5c2751;fill-opacity:1;stroke:none;"/><g style="fill:#ffffff;fill-opacity:1;"><g transform="translate(-3.425639, 322.63616)"><path style="stroke:none" d="M 140.953125 -109.546875 C 140.953125 -128.390625 138.53125 -141.738281 133.6875 -149.59375 C 128.84375 -157.445312 120.53125 -161.375 108.75 -161.375 C 105.09375 -161.375 101.300781 -161.175781 97.375 -160.78125 C 93.445312 -160.382812 89.648438 -159.925781 85.984375 -159.40625 L 85.984375 0 L 27.484375 0 L 27.484375 -199.453125 C 32.453125 -200.765625 38.273438 -202.140625 44.953125 -203.578125 C 51.628906 -205.015625 58.695312 -206.320312 66.15625 -207.5 C 73.613281 -208.675781 81.269531 -209.59375 89.125 -210.25 C 96.976562 -210.90625 104.703125 -211.234375 112.296875 -211.234375 C 127.210938 -211.234375 139.316406 -209.332031 148.609375 -205.53125 C 157.898438 -201.738281 165.554688 -197.226562 171.578125 -192 C 179.953125 -198.019531 189.570312 -202.726562 200.4375 -206.125 C 211.300781 -209.53125 221.3125 -211.234375 230.46875 -211.234375 C 246.957031 -211.234375 260.503906 -208.941406 271.109375 -204.359375 C 281.710938 -199.773438 290.15625 -193.296875 296.4375 -184.921875 C 302.71875 -176.546875 307.035156 -166.597656 309.390625 -155.078125 C 311.742188 -143.566406 312.921875 -130.742188 312.921875 -116.609375 L 312.921875 0 L 254.421875 0 L 254.421875 -109.546875 C 254.421875 -128.390625 252 -141.738281 247.15625 -149.59375 C 242.3125 -157.445312 234 -161.375 222.21875 -161.375 C 219.082031 -161.375 214.695312 -160.585938 209.0625 -159.015625 C 203.4375 -157.441406 198.796875 -155.476562 195.140625 -153.125 C 196.972656 -147.101562 198.148438 -140.753906 198.671875 -134.078125 C 199.191406 -127.398438 199.453125 -120.269531 199.453125 -112.6875 L 199.453125 0 L 140.953125 0 Z M 140.953125 -109.546875 "/></g></g><g style="fill:#ffffff;fill-opacity:1;"><g transform="translate(335.02298, 322.63616)"><path style="stroke:none" d="M 17.671875 -101.6875 C 17.671875 -120.007812 20.484375 -136.039062 26.109375 -149.78125 C 31.734375 -163.53125 39.125 -174.984375 48.28125 -184.140625 C 57.445312 -193.304688 67.984375 -200.242188 79.890625 -204.953125 C 91.804688 -209.660156 104.046875 -212.015625 116.609375 -212.015625 C 145.921875 -212.015625 169.082031 -203.050781 186.09375 -185.125 C 203.113281 -167.195312 211.625 -140.828125 211.625 -106.015625 C 211.625 -102.609375 211.492188 -98.875 211.234375 -94.8125 C 210.972656 -90.757812 210.710938 -87.160156 210.453125 -84.015625 L 77.734375 -84.015625 C 79.046875 -71.984375 84.675781 -62.429688 94.625 -55.359375 C 104.570312 -48.296875 117.921875 -44.765625 134.671875 -44.765625 C 145.398438 -44.765625 155.929688 -45.742188 166.265625 -47.703125 C 176.609375 -49.671875 185.050781 -52.09375 191.59375 -54.96875 L 199.453125 -7.453125 C 196.304688 -5.890625 192.113281 -4.320312 186.875 -2.75 C 181.644531 -1.175781 175.820312 0.195312 169.40625 1.375 C 163 2.550781 156.128906 3.53125 148.796875 4.3125 C 141.472656 5.101562 134.144531 5.5 126.8125 5.5 C 108.226562 5.5 92.066406 2.75 78.328125 -2.75 C 64.585938 -8.25 53.203125 -15.773438 44.171875 -25.328125 C 35.140625 -34.878906 28.460938 -46.195312 24.140625 -59.28125 C 19.828125 -72.375 17.671875 -86.507812 17.671875 -101.6875 Z M 155.09375 -124.0625 C 154.820312 -129.039062 153.96875 -133.882812 152.53125 -138.59375 C 151.09375 -143.300781 148.867188 -147.488281 145.859375 -151.15625 C 142.847656 -154.820312 139.050781 -157.832031 134.46875 -160.1875 C 129.894531 -162.539062 124.203125 -163.71875 117.390625 -163.71875 C 110.847656 -163.71875 105.21875 -162.601562 100.5 -160.375 C 95.789062 -158.15625 91.863281 -155.210938 88.71875 -151.546875 C 85.582031 -147.890625 83.164062 -143.640625 81.46875 -138.796875 C 79.769531 -133.953125 78.523438 -129.039062 77.734375 -124.0625 Z M 155.09375 -124.0625 "/></g></g><g style="fill:#ffffff;fill-opacity:1;"><g transform="translate(564.319922, 322.63616)"><path style="stroke:none" d="M 27.484375 -199.453125 C 37.429688 -202.328125 50.253906 -205.007812 65.953125 -207.5 C 81.660156 -209.988281 98.15625 -211.234375 115.4375 -211.234375 C 132.96875 -211.234375 147.554688 -208.941406 159.203125 -204.359375 C 170.859375 -199.773438 180.085938 -193.296875 186.890625 -184.921875 C 193.691406 -176.546875 198.53125 -166.597656 201.40625 -155.078125 C 204.289062 -143.566406 205.734375 -130.742188 205.734375 -116.609375 L 205.734375 0 L 147.234375 0 L 147.234375 -109.546875 C 147.234375 -128.390625 144.742188 -141.738281 139.765625 -149.59375 C 134.796875 -157.445312 125.503906 -161.375 111.890625 -161.375 C 107.703125 -161.375 103.253906 -161.175781 98.546875 -160.78125 C 93.835938 -160.382812 89.648438 -159.925781 85.984375 -159.40625 L 85.984375 0 L 27.484375 0 Z M 27.484375 -199.453125 "/></g></g><g style="fill:#ffffff;fill-opacity:1;"><g transform="translate(795.580094, 322.63616)"><path style="stroke:none" d="M 220.65625 -103.65625 C 220.65625 -87.425781 218.296875 -72.570312 213.578125 -59.09375 C 208.867188 -45.613281 202.066406 -34.09375 193.171875 -24.53125 C 184.273438 -14.976562 173.609375 -7.582031 161.171875 -2.34375 C 148.734375 2.882812 134.796875 5.5 119.359375 5.5 C 104.171875 5.5 90.359375 2.882812 77.921875 -2.34375 C 65.492188 -7.582031 54.832031 -14.976562 45.9375 -24.53125 C 37.039062 -34.09375 30.101562 -45.613281 25.125 -59.09375 C 20.15625 -72.570312 17.671875 -87.425781 17.671875 -103.65625 C 17.671875 -119.882812 20.222656 -134.671875 25.328125 -148.015625 C 30.429688 -161.367188 37.5 -172.753906 46.53125 -182.171875 C 55.5625 -191.597656 66.289062 -198.925781 78.71875 -204.15625 C 91.15625 -209.394531 104.703125 -212.015625 119.359375 -212.015625 C 134.273438 -212.015625 147.945312 -209.394531 160.375 -204.15625 C 172.8125 -198.925781 183.476562 -191.597656 192.375 -182.171875 C 201.28125 -172.753906 208.21875 -161.367188 213.1875 -148.015625 C 218.164062 -134.671875 220.65625 -119.882812 220.65625 -103.65625 Z M 160.96875 -103.65625 C 160.96875 -121.71875 157.367188 -135.914062 150.171875 -146.25 C 142.972656 -156.59375 132.703125 -161.765625 119.359375 -161.765625 C 106.003906 -161.765625 95.660156 -156.59375 88.328125 -146.25 C 81.003906 -135.914062 77.34375 -121.71875 77.34375 -103.65625 C 77.34375 -85.59375 81.003906 -71.257812 88.328125 -60.65625 C 95.660156 -50.0625 106.003906 -44.765625 119.359375 -44.765625 C 132.703125 -44.765625 142.972656 -50.0625 150.171875 -60.65625 C 157.367188 -71.257812 160.96875 -85.59375 160.96875 -103.65625 Z M 160.96875 -103.65625 "/></g></g><g style="fill:#db3cc1;fill-opacity:1;"><g transform="translate(1037.880113, 366.607984)"><path style="stroke:none" d="M 293.671875 -81.96875 C 306.296875 -73.445312 315.351562 -67.265625 320.84375 -63.421875 C 330.726562 -56.015625 335.671875 -48.945312 335.671875 -42.21875 C 335.671875 -35.488281 331.550781 -26.082031 323.3125 -14 C 315.082031 -1.914062 306.710938 4.125 298.203125 4.125 C 292.984375 4.125 285.019531 0.414062 274.3125 -7 C 272.9375 -7.820312 269.085938 -10.429688 262.765625 -14.828125 C 256.453125 -19.222656 251.515625 -22.519531 247.953125 -24.71875 C 222.410156 -4.945312 193.710938 4.9375 161.859375 4.9375 C 119.304688 4.9375 83.40625 -10.160156 54.15625 -40.359375 C 24.914062 -70.566406 10.296875 -106.539062 10.296875 -148.28125 C 10.296875 -171.0625 14.414062 -192.40625 22.65625 -212.3125 C 30.894531 -232.226562 41.878906 -248.910156 55.609375 -262.359375 C 69.335938 -275.816406 85.125 -286.390625 102.96875 -294.078125 C 120.8125 -301.765625 139.207031 -305.609375 158.15625 -305.609375 C 198.800781 -305.609375 234.085938 -290.914062 264.015625 -261.53125 C 293.941406 -232.15625 308.90625 -194.953125 308.90625 -149.921875 C 308.90625 -127.128906 303.828125 -104.476562 293.671875 -81.96875 Z M 83.203125 -150.328125 C 83.203125 -125.890625 91.09375 -106.050781 106.875 -90.8125 C 122.664062 -75.570312 140.304688 -67.953125 159.796875 -67.953125 C 179.296875 -67.953125 196.867188 -75.363281 212.515625 -90.1875 C 228.171875 -105.019531 236 -124.929688 236 -149.921875 C 236 -174.910156 228.101562 -194.953125 212.3125 -210.046875 C 196.53125 -225.148438 178.890625 -232.703125 159.390625 -232.703125 C 139.898438 -232.703125 122.328125 -225.082031 106.671875 -209.84375 C 91.023438 -194.601562 83.203125 -174.765625 83.203125 -150.328125 Z M 83.203125 -150.328125 "/></g></g><path style="fill:none;stroke-width:13;stroke-linecap:round;stroke-linejoin:miter;stroke:#db3cc1;stroke-opacity:1;stroke-miterlimit:4;" d="M 6.500213 6.499988 L 24.37782 6.49984 " transform="matrix(5.209657,3.498222,-3.498222,5.209657,1291.667493,257.058261)"/></g></svg>