<svg xmlns="http://www.w3.org/2000/svg" xmlns:xlink="http://www.w3.org/1999/xlink" width="1920" zoomAndPan="magnify" viewBox="0 0 1440 1439.999935" height="1920" preserveAspectRatio="xMidYMid meet" version="1.2"><defs/><g id="de5a6a502f"><g style="fill:#db3cc1;fill-opacity:1;"><g transform="translate(-41.067698, 1368.233715)"><path style="stroke:none" d="M 1293.84375 -361.109375 C 1349.5 -323.609375 1389.425781 -296.390625 1413.625 -279.453125 C 1457.164062 -246.796875 1478.9375 -215.644531 1478.9375 -186 C 1478.9375 -156.363281 1460.789062 -114.929688 1424.5 -61.703125 C 1388.207031 -8.472656 1351.3125 18.140625 1313.8125 18.140625 C 1290.820312 18.140625 1255.738281 1.8125 1208.5625 -30.84375 C 1202.507812 -34.476562 1185.570312 -45.972656 1157.75 -65.328125 C 1129.925781 -84.679688 1108.148438 -99.195312 1092.421875 -108.875 C 979.910156 -21.769531 853.488281 21.78125 713.15625 21.78125 C 525.644531 21.78125 367.46875 -44.753906 238.625 -177.828125 C 109.78125 -310.910156 45.359375 -469.394531 45.359375 -653.28125 C 45.359375 -753.6875 63.503906 -847.742188 99.796875 -935.453125 C 136.097656 -1023.160156 184.492188 -1096.65625 244.984375 -1155.9375 C 305.472656 -1215.21875 375.03125 -1261.789062 453.65625 -1295.65625 C 532.289062 -1329.53125 613.347656 -1346.46875 696.828125 -1346.46875 C 875.867188 -1346.46875 1031.320312 -1281.742188 1163.1875 -1152.296875 C 1295.0625 -1022.859375 1361 -858.9375 1361 -660.53125 C 1361 -560.125 1338.613281 -460.316406 1293.84375 -361.109375 Z M 366.5625 -662.34375 C 366.5625 -554.675781 401.34375 -467.269531 470.90625 -400.125 C 540.46875 -332.988281 618.191406 -299.421875 704.078125 -299.421875 C 789.972656 -299.421875 867.398438 -332.082031 936.359375 -397.40625 C 1005.316406 -462.738281 1039.796875 -550.445312 1039.796875 -660.53125 C 1039.796875 -770.625 1005.015625 -858.9375 935.453125 -925.46875 C 865.890625 -992.007812 788.160156 -1025.28125 702.265625 -1025.28125 C 616.378906 -1025.28125 538.957031 -991.707031 470 -924.5625 C 401.039062 -857.425781 366.5625 -770.019531 366.5625 -662.34375 Z M 366.5625 -662.34375 "/></g></g><g style="fill:#2f3336;fill-opacity:1;"><g transform="translate(419.498532, 976.730377)"><path style="stroke:none" d="M 61.234375 -530.40625 L 180.625 -530.40625 L 180.625 0 L 61.234375 0 Z M 61.234375 -530.40625 "/></g></g><g style="fill:#2f3336;fill-opacity:1;"><g transform="translate(661.30479, 976.730377)"><path style="stroke:none" d="M 61.234375 -530.40625 L 180.625 -530.40625 L 180.625 0 L 61.234375 0 Z M 61.234375 -530.40625 "/></g></g></g></svg>