<svg xmlns="http://www.w3.org/2000/svg" xmlns:xlink="http://www.w3.org/1999/xlink" width="1920" zoomAndPan="magnify" viewBox="0 0 1440 449.999984" height="600" preserveAspectRatio="xMidYMid meet" version="1.2"><defs/><g id="7926804319"><g style="fill:#2f3336;fill-opacity:1;"><g transform="translate(-14.997366, 326.819939)"><path style="stroke:none" d="M 140.9375 -109.53125 C 140.9375 -128.375 138.515625 -141.71875 133.671875 -149.5625 C 128.828125 -157.414062 120.519531 -161.34375 108.75 -161.34375 C 105.082031 -161.34375 101.285156 -161.144531 97.359375 -160.75 C 93.429688 -160.363281 89.632812 -159.910156 85.96875 -159.390625 L 85.96875 0 L 27.484375 0 L 27.484375 -199.4375 C 32.453125 -200.738281 38.273438 -202.109375 44.953125 -203.546875 C 51.628906 -204.992188 58.695312 -206.304688 66.15625 -207.484375 C 73.613281 -208.660156 81.265625 -209.570312 89.109375 -210.21875 C 96.960938 -210.875 104.6875 -211.203125 112.28125 -211.203125 C 127.195312 -211.203125 139.300781 -209.304688 148.59375 -205.515625 C 157.882812 -201.722656 165.539062 -197.207031 171.5625 -191.96875 C 179.9375 -197.988281 189.550781 -202.695312 200.40625 -206.09375 C 211.269531 -209.5 221.28125 -211.203125 230.4375 -211.203125 C 246.925781 -211.203125 260.46875 -208.910156 271.0625 -204.328125 C 281.664062 -199.753906 290.109375 -193.28125 296.390625 -184.90625 C 302.671875 -176.53125 306.988281 -166.582031 309.34375 -155.0625 C 311.707031 -143.550781 312.890625 -130.726562 312.890625 -116.59375 L 312.890625 0 L 254.390625 0 L 254.390625 -109.53125 C 254.390625 -128.375 251.96875 -141.71875 247.125 -149.5625 C 242.28125 -157.414062 233.972656 -161.34375 222.203125 -161.34375 C 219.054688 -161.34375 214.671875 -160.554688 209.046875 -158.984375 C 203.421875 -157.421875 198.773438 -155.460938 195.109375 -153.109375 C 196.941406 -147.085938 198.117188 -140.738281 198.640625 -134.0625 C 199.171875 -127.394531 199.4375 -120.265625 199.4375 -112.671875 L 199.4375 0 L 140.9375 0 Z M 140.9375 -109.53125 "/></g></g><g style="fill:#2f3336;fill-opacity:1;"><g transform="translate(323.332825, 326.819939)"><path style="stroke:none" d="M 17.671875 -101.671875 C 17.671875 -119.992188 20.484375 -136.023438 26.109375 -149.765625 C 31.734375 -163.503906 39.125 -174.953125 48.28125 -184.109375 C 57.445312 -193.273438 67.984375 -200.210938 79.890625 -204.921875 C 91.796875 -209.640625 104.03125 -212 116.59375 -212 C 145.90625 -212 169.066406 -203.03125 186.078125 -185.09375 C 203.085938 -167.164062 211.59375 -140.800781 211.59375 -106 C 211.59375 -102.59375 211.460938 -98.859375 211.203125 -94.796875 C 210.941406 -90.742188 210.679688 -87.148438 210.421875 -84.015625 L 77.734375 -84.015625 C 79.035156 -71.972656 84.660156 -62.414062 94.609375 -55.34375 C 104.554688 -48.28125 117.90625 -44.75 134.65625 -44.75 C 145.382812 -44.75 155.914062 -45.726562 166.25 -47.6875 C 176.59375 -49.65625 185.035156 -52.082031 191.578125 -54.96875 L 199.4375 -7.453125 C 196.289062 -5.890625 192.097656 -4.320312 186.859375 -2.75 C 181.628906 -1.175781 175.804688 0.195312 169.390625 1.375 C 162.984375 2.550781 156.113281 3.53125 148.78125 4.3125 C 141.457031 5.101562 134.128906 5.5 126.796875 5.5 C 108.222656 5.5 92.0625 2.75 78.3125 -2.75 C 64.570312 -8.25 53.1875 -15.773438 44.15625 -25.328125 C 35.132812 -34.878906 28.460938 -46.195312 24.140625 -59.28125 C 19.828125 -72.363281 17.671875 -86.492188 17.671875 -101.671875 Z M 155.0625 -124.0625 C 154.800781 -129.03125 153.953125 -133.867188 152.515625 -138.578125 C 151.078125 -143.285156 148.851562 -147.472656 145.84375 -151.140625 C 142.832031 -154.804688 139.035156 -157.816406 134.453125 -160.171875 C 129.878906 -162.523438 124.1875 -163.703125 117.375 -163.703125 C 110.832031 -163.703125 105.207031 -162.585938 100.5 -160.359375 C 95.789062 -158.140625 91.863281 -155.195312 88.71875 -151.53125 C 85.582031 -147.875 83.160156 -143.625 81.453125 -138.78125 C 79.753906 -133.9375 78.515625 -129.03125 77.734375 -124.0625 Z M 155.0625 -124.0625 "/></g></g><g style="fill:#2f3336;fill-opacity:1;"><g transform="translate(552.549621, 326.819939)"><path style="stroke:none" d="M 27.484375 -199.4375 C 37.429688 -202.3125 50.253906 -204.988281 65.953125 -207.46875 C 81.660156 -209.957031 98.148438 -211.203125 115.421875 -211.203125 C 132.953125 -211.203125 147.539062 -208.910156 159.1875 -204.328125 C 170.832031 -199.753906 180.054688 -193.28125 186.859375 -184.90625 C 193.671875 -176.53125 198.515625 -166.582031 201.390625 -155.0625 C 204.273438 -143.550781 205.71875 -130.726562 205.71875 -116.59375 L 205.71875 0 L 147.21875 0 L 147.21875 -109.53125 C 147.21875 -128.375 144.726562 -141.71875 139.75 -149.5625 C 134.78125 -157.414062 125.492188 -161.34375 111.890625 -161.34375 C 107.703125 -161.34375 103.25 -161.144531 98.53125 -160.75 C 93.820312 -160.363281 89.632812 -159.910156 85.96875 -159.390625 L 85.96875 0 L 27.484375 0 Z M 27.484375 -199.4375 "/></g></g><g style="fill:#2f3336;fill-opacity:1;"><g transform="translate(783.728853, 326.819939)"><path style="stroke:none" d="M 220.625 -103.640625 C 220.625 -87.410156 218.269531 -72.554688 213.5625 -59.078125 C 208.851562 -45.597656 202.046875 -34.082031 193.140625 -24.53125 C 184.242188 -14.976562 173.578125 -7.582031 161.140625 -2.34375 C 148.710938 2.882812 134.78125 5.5 119.34375 5.5 C 104.164062 5.5 90.359375 2.882812 77.921875 -2.34375 C 65.492188 -7.582031 54.828125 -14.976562 45.921875 -24.53125 C 37.023438 -34.082031 30.09375 -45.597656 25.125 -59.078125 C 20.15625 -72.554688 17.671875 -87.410156 17.671875 -103.640625 C 17.671875 -119.867188 20.222656 -134.65625 25.328125 -148 C 30.429688 -161.351562 37.492188 -172.738281 46.515625 -182.15625 C 55.546875 -191.582031 66.273438 -198.910156 78.703125 -204.140625 C 91.140625 -209.378906 104.6875 -212 119.34375 -212 C 134.257812 -212 147.929688 -209.378906 160.359375 -204.140625 C 172.796875 -198.910156 183.460938 -191.582031 192.359375 -182.15625 C 201.265625 -172.738281 208.203125 -161.351562 213.171875 -148 C 218.140625 -134.65625 220.625 -119.867188 220.625 -103.640625 Z M 160.953125 -103.640625 C 160.953125 -121.703125 157.351562 -135.898438 150.15625 -146.234375 C 142.957031 -156.578125 132.6875 -161.75 119.34375 -161.75 C 106 -161.75 95.660156 -156.578125 88.328125 -146.234375 C 81.003906 -135.898438 77.34375 -121.703125 77.34375 -103.640625 C 77.34375 -85.578125 81.003906 -71.242188 88.328125 -60.640625 C 95.660156 -50.046875 106 -44.75 119.34375 -44.75 C 132.6875 -44.75 142.957031 -50.046875 150.15625 -60.640625 C 157.351562 -71.242188 160.953125 -85.578125 160.953125 -103.640625 Z M 160.953125 -103.640625 "/></g></g><g style="fill:#db3cc1;fill-opacity:1;"><g transform="translate(1026.189138, 376.62882)"><path style="stroke:none" d="M 293.671875 -81.96875 C 306.296875 -73.445312 315.351562 -67.265625 320.84375 -63.421875 C 330.726562 -56.015625 335.671875 -48.945312 335.671875 -42.21875 C 335.671875 -35.488281 331.550781 -26.082031 323.3125 -14 C 315.082031 -1.914062 306.710938 4.125 298.203125 4.125 C 292.984375 4.125 285.019531 0.414062 274.3125 -7 C 272.9375 -7.820312 269.085938 -10.429688 262.765625 -14.828125 C 256.453125 -19.222656 251.515625 -22.519531 247.953125 -24.71875 C 222.410156 -4.945312 193.710938 4.9375 161.859375 4.9375 C 119.304688 4.9375 83.40625 -10.160156 54.15625 -40.359375 C 24.914062 -70.566406 10.296875 -106.539062 10.296875 -148.28125 C 10.296875 -171.0625 14.414062 -192.40625 22.65625 -212.3125 C 30.894531 -232.226562 41.878906 -248.910156 55.609375 -262.359375 C 69.335938 -275.816406 85.125 -286.390625 102.96875 -294.078125 C 120.8125 -301.765625 139.207031 -305.609375 158.15625 -305.609375 C 198.800781 -305.609375 234.085938 -290.914062 264.015625 -261.53125 C 293.941406 -232.15625 308.90625 -194.953125 308.90625 -149.921875 C 308.90625 -127.128906 303.828125 -104.476562 293.671875 -81.96875 Z M 83.203125 -150.328125 C 83.203125 -125.890625 91.09375 -106.050781 106.875 -90.8125 C 122.664062 -75.570312 140.304688 -67.953125 159.796875 -67.953125 C 179.296875 -67.953125 196.867188 -75.363281 212.515625 -90.1875 C 228.171875 -105.019531 236 -124.929688 236 -149.921875 C 236 -174.910156 228.101562 -194.953125 212.3125 -210.046875 C 196.53125 -225.148438 178.890625 -232.703125 159.390625 -232.703125 C 139.898438 -232.703125 122.328125 -225.082031 106.671875 -209.84375 C 91.023438 -194.601562 83.203125 -174.765625 83.203125 -150.328125 Z M 83.203125 -150.328125 "/></g></g><path style="fill:none;stroke-width:13;stroke-linecap:round;stroke-linejoin:miter;stroke:#db3cc1;stroke-opacity:1;stroke-miterlimit:4;" d="M 6.500049 6.49984 L 24.378003 6.500208 " transform="matrix(5.209657,3.498222,-3.498222,5.209657,1279.976422,267.079138)"/></g></svg>